<?xml version="1.0" standalone="no"?>
<!DOCTYPE svg PUBLIC "-//W3C//DTD SVG 20010904//EN"
 "http://www.w3.org/TR/2001/REC-SVG-20010904/DTD/svg10.dtd">
<svg version="1.0" xmlns="http://www.w3.org/2000/svg"
 width="512.000000pt" height="512.000000pt" viewBox="0 0 512.000000 512.000000"
 preserveAspectRatio="xMidYMid meet">
<metadata>
Created by potrace 1.14, written by Peter Selinger 2001-2017
</metadata>
<g transform="translate(0.000000,512.000000) scale(0.100000,-0.100000)"
fill="#000000" stroke="none">
<path d="M253 5000 c-95 -19 -178 -82 -220 -168 l-28 -57 0 -1430 0 -1430
2558 -3 2557 -2 0 1413 c0 1561 4 1471 -63 1559 -18 24 -51 55 -74 70 -91 62
59 58 -2423 57 -1246 -1 -2284 -5 -2307 -9z m4247 -1540 l0 -1230 -2095 0
-2095 0 0 1230 0 1230 2095 0 2095 0 0 -1230z"/>
<path d="M2022 842 c-23 -82 -42 -151 -42 -155 0 -4 193 -7 430 -7 l429 0 12
-42 c34 -128 61 -179 130 -244 61 -57 100 -82 161 -104 53 -18 50 -19 -622
-19 -371 -1 -882 -4 -1134 -8 -427 -6 -461 -8 -478 -25 -24 -24 -23 -69 2 -96
l21 -22 1629 0 1629 0 21 22 c26 28 26 72 0 98 -19 19 -33 20 -317 20 -164 0
-326 5 -361 10 -132 19 -268 113 -325 226 -13 27 -53 149 -88 272 l-63 222
-496 0 -496 0 -42 -148z"/>
</g>
</svg>
